<svg width="695" height="150" viewBox="0 0 695 150" fill="none" xmlns="http://www.w3.org/2000/svg">
<mask id="mask0_4006_394" style="mask-type:alpha" maskUnits="userSpaceOnUse" x="0" y="0" width="695" height="150">
<path d="M0 0H695V150H0V0Z" fill="#D9D9D9"/>
</mask>
<g mask="url(#mask0_4006_394)">
<path d="M206.068 110V40.1818H220.83V97.8295H250.761V110H206.068ZM284.128 111.023C278.741 111.023 274.105 109.932 270.219 107.75C266.355 105.545 263.378 102.432 261.287 98.4091C259.196 94.3636 258.151 89.5795 258.151 84.0568C258.151 78.6705 259.196 73.9432 261.287 69.875C263.378 65.8068 266.321 62.6364 270.116 60.3636C273.935 58.0909 278.412 56.9545 283.548 56.9545C287.003 56.9545 290.219 57.5114 293.196 58.625C296.196 59.7159 298.81 61.3636 301.037 63.5682C303.287 65.7727 305.037 68.5455 306.287 71.8864C307.537 75.2045 308.162 79.0909 308.162 83.5455V87.5341H263.946V78.5341H294.491C294.491 76.4432 294.037 74.5909 293.128 72.9773C292.219 71.3636 290.957 70.1023 289.344 69.1932C287.753 68.2614 285.901 67.7955 283.787 67.7955C281.582 67.7955 279.628 68.3068 277.923 69.3295C276.241 70.3295 274.923 71.6818 273.969 73.3864C273.014 75.0682 272.526 76.9432 272.503 79.0114V87.5682C272.503 90.1591 272.98 92.3977 273.935 94.2841C274.912 96.1705 276.287 97.625 278.06 98.6477C279.832 99.6705 281.935 100.182 284.366 100.182C285.98 100.182 287.457 99.9545 288.798 99.5C290.139 99.0455 291.287 98.3636 292.241 97.4545C293.196 96.5455 293.923 95.4318 294.423 94.1136L307.855 95C307.173 98.2273 305.776 101.045 303.662 103.455C301.571 105.841 298.866 107.705 295.548 109.045C292.253 110.364 288.446 111.023 284.128 111.023ZM341.298 111.023C335.935 111.023 331.321 109.886 327.457 107.614C323.616 105.318 320.662 102.136 318.594 98.0682C316.548 94 315.526 89.3182 315.526 84.0227C315.526 78.6591 316.56 73.9545 318.628 69.9091C320.719 65.8409 323.685 62.6705 327.526 60.3977C331.366 58.1023 335.935 56.9545 341.23 56.9545C345.798 56.9545 349.798 57.7841 353.23 59.4432C356.662 61.1023 359.378 63.4318 361.378 66.4318C363.378 69.4318 364.48 72.9545 364.685 77H350.98C350.594 74.3864 349.571 72.2841 347.912 70.6932C346.276 69.0795 344.128 68.2727 341.469 68.2727C339.219 68.2727 337.253 68.8864 335.571 70.1136C333.912 71.3182 332.616 73.0795 331.685 75.3977C330.753 77.7159 330.287 80.5227 330.287 83.8182C330.287 87.1591 330.741 90 331.651 92.3409C332.582 94.6818 333.889 96.4659 335.571 97.6932C337.253 98.9205 339.219 99.5341 341.469 99.5341C343.128 99.5341 344.616 99.1932 345.935 98.5114C347.276 97.8295 348.378 96.8409 349.241 95.5455C350.128 94.2273 350.707 92.6477 350.98 90.8068H364.685C364.457 94.8068 363.366 98.3295 361.412 101.375C359.48 104.398 356.81 106.761 353.401 108.466C349.991 110.17 345.957 111.023 341.298 111.023ZM401.835 57.6364V68.5455H370.301V57.6364H401.835ZM377.46 45.0909H391.983V93.9091C391.983 95.25 392.188 96.2955 392.597 97.0455C393.006 97.7727 393.574 98.2841 394.301 98.5795C395.051 98.875 395.915 99.0227 396.892 99.0227C397.574 99.0227 398.256 98.9659 398.938 98.8523C399.619 98.7159 400.142 98.6136 400.506 98.5455L402.79 109.352C402.063 109.58 401.04 109.841 399.722 110.136C398.403 110.455 396.801 110.648 394.915 110.716C391.415 110.852 388.347 110.386 385.71 109.318C383.097 108.25 381.063 106.591 379.608 104.341C378.153 102.091 377.438 99.25 377.46 95.8182V45.0909ZM444.875 87.7045V57.6364H459.398V110H445.455V100.489H444.909C443.727 103.557 441.761 106.023 439.011 107.886C436.284 109.75 432.955 110.682 429.023 110.682C425.523 110.682 422.443 109.886 419.784 108.295C417.125 106.705 415.045 104.443 413.545 101.511C412.068 98.5795 411.318 95.0682 411.295 90.9773V57.6364H425.818V88.3864C425.841 91.4773 426.67 93.9205 428.307 95.7159C429.943 97.5114 432.136 98.4091 434.886 98.4091C436.636 98.4091 438.273 98.0114 439.795 97.2159C441.318 96.3977 442.545 95.1932 443.477 93.6023C444.432 92.0114 444.898 90.0455 444.875 87.7045ZM471.014 110V57.6364H485.094V66.7727H485.639C486.594 63.5227 488.196 61.0682 490.446 59.4091C492.696 57.7273 495.287 56.8864 498.219 56.8864C498.946 56.8864 499.73 56.9318 500.571 57.0227C501.412 57.1136 502.151 57.2386 502.787 57.3977V70.2841C502.105 70.0795 501.162 69.8977 499.957 69.7386C498.753 69.5795 497.651 69.5 496.651 69.5C494.514 69.5 492.605 69.9659 490.923 70.8977C489.264 71.8068 487.946 73.0795 486.969 74.7159C486.014 76.3523 485.537 78.2386 485.537 80.375V110H471.014ZM523.727 110.989C520.386 110.989 517.409 110.409 514.795 109.25C512.182 108.068 510.114 106.33 508.591 104.034C507.091 101.716 506.341 98.8295 506.341 95.375C506.341 92.4659 506.875 90.0227 507.943 88.0455C509.011 86.0682 510.466 84.4773 512.307 83.2727C514.148 82.0682 516.239 81.1591 518.58 80.5455C520.943 79.9318 523.42 79.5 526.011 79.25C529.057 78.9318 531.511 78.6364 533.375 78.3636C535.239 78.0682 536.591 77.6364 537.432 77.0682C538.273 76.5 538.693 75.6591 538.693 74.5455V74.3409C538.693 72.1818 538.011 70.5114 536.648 69.3295C535.307 68.1477 533.398 67.5568 530.92 67.5568C528.307 67.5568 526.227 68.1364 524.682 69.2955C523.136 70.4318 522.114 71.8636 521.614 73.5909L508.182 72.5C508.864 69.3182 510.205 66.5682 512.205 64.25C514.205 61.9091 516.784 60.1136 519.943 58.8636C523.125 57.5909 526.807 56.9545 530.989 56.9545C533.898 56.9545 536.682 57.2955 539.341 57.9773C542.023 58.6591 544.398 59.7159 546.466 61.1477C548.557 62.5795 550.205 64.4205 551.409 66.6705C552.614 68.8977 553.216 71.5682 553.216 74.6818V110H539.443V102.739H539.034C538.193 104.375 537.068 105.818 535.659 107.068C534.25 108.295 532.557 109.261 530.58 109.966C528.602 110.648 526.318 110.989 523.727 110.989ZM527.886 100.966C530.023 100.966 531.909 100.545 533.545 99.7045C535.182 98.8409 536.466 97.6818 537.398 96.2273C538.33 94.7727 538.795 93.125 538.795 91.2841V85.7273C538.341 86.0227 537.716 86.2955 536.92 86.5455C536.148 86.7727 535.273 86.9886 534.295 87.1932C533.318 87.375 532.341 87.5455 531.364 87.7045C530.386 87.8409 529.5 87.9659 528.705 88.0795C527 88.3295 525.511 88.7273 524.239 89.2727C522.966 89.8182 521.977 90.5568 521.273 91.4886C520.568 92.3977 520.216 93.5341 520.216 94.8977C520.216 96.875 520.932 98.3864 522.364 99.4318C523.818 100.455 525.659 100.966 527.886 100.966ZM564.756 110V40.1818H579.517V97.8295H609.449V110H564.756ZM619.224 40.1818H637.429L656.656 87.0909H657.474L676.702 40.1818H694.906V110H680.588V64.5568H680.009L661.94 109.659H652.19L634.122 64.3864H633.543V110H619.224V40.1818Z" fill="url(#paint0_linear_4006_394)"/>
<path d="M70.3508 26.8129H79.8657V72.7778H70.3508V26.8129Z" fill="url(#paint1_linear_4006_394)"/>
<path d="M70.3508 26.8129H79.8657V19.152H70.3508V26.8129Z" fill="url(#paint2_linear_4006_394)"/>
<path d="M70.3508 4.05563C70.3508 1.81577 72.4808 0 75.1083 0C77.7357 0 79.8657 1.81577 79.8657 4.05563V22.7572C79.8657 24.9971 77.7357 26.8129 75.1083 26.8129C72.4808 26.8129 70.3508 24.9971 70.3508 22.7572V4.05563Z" fill="url(#paint3_linear_4006_394)"/>
<path d="M51.9949 16.9227C49.7835 15.8947 49.0557 13.5762 50.3695 11.7441C51.6832 9.91208 54.5409 9.26024 56.7523 10.2882L77.5846 19.972C79.7961 21 80.5238 23.3185 79.2101 25.1506C77.8963 26.9826 75.0386 27.6345 72.8272 26.6065L51.9949 16.9227Z" fill="url(#paint4_linear_4006_394)"/>
<path d="M93.76 10.2882C95.9714 9.26024 98.8292 9.91207 100.143 11.7441C101.457 13.5762 100.729 15.8947 98.5175 16.9227L77.6852 26.6065C75.4738 27.6345 72.616 26.9826 71.3023 25.1506C69.9886 23.3185 70.7163 21 72.9277 19.972L93.76 10.2882Z" fill="url(#paint5_linear_4006_394)"/>
<path d="M27.1158 50.3937L31.8733 43.7592L81.3143 66.7417L76.5568 73.3762L27.1158 50.3937Z" fill="url(#paint6_linear_4006_394)"/>
<path d="M27.1158 50.3937L31.8733 43.7592L23.6331 39.9288L18.8757 46.5633L27.1158 50.3937Z" fill="url(#paint7_linear_4006_394)"/>
<path d="M2.2794 38.8486C0.0679799 37.8206 -0.65974 35.5021 0.653996 33.67C1.96773 31.838 4.82544 31.1861 7.03687 32.2141L27.8692 41.8979C30.0806 42.9259 30.8083 45.2444 29.4946 47.0765C28.1808 48.9085 25.3231 49.5604 23.1117 48.5324L2.2794 38.8486Z" fill="url(#paint8_linear_4006_394)"/>
<path d="M7.4749 58.1662C5.16674 59.2391 2.23061 58.6238 0.916871 56.7917C-0.396866 54.9596 0.409275 52.6047 2.71744 51.5317L23.1994 42.0108C25.5076 40.9378 28.4437 41.5532 29.7574 43.3853C31.0712 45.2173 30.265 47.5723 27.9569 48.6452L7.4749 58.1662Z" fill="url(#paint9_linear_4006_394)"/>
<path d="M21.0461 25.9717C21.0461 23.8258 23.1761 22.0862 25.8036 22.0862C28.4311 22.0862 30.561 23.8258 30.561 25.9717V45.0136C30.561 47.1595 28.4311 48.8991 25.8036 48.8991C23.1761 48.8991 21.0461 47.1595 21.0461 45.0136V25.9717Z" fill="url(#paint10_linear_4006_394)"/>
<path d="M118.127 43.936L122.884 50.5705L73.4432 73.5529L68.6857 66.9185L118.127 43.936Z" fill="url(#paint11_linear_4006_394)"/>
<path d="M118.127 43.936L122.884 50.5705L131.124 46.7401L126.367 40.1056L118.127 43.936Z" fill="url(#paint12_linear_4006_394)"/>
<path d="M142.963 32.3909C145.175 31.3629 148.032 32.0148 149.346 33.8468C150.66 35.6789 149.932 37.9974 147.721 39.0254L126.888 48.7092C124.677 49.7371 121.819 49.0853 120.505 47.2532C119.192 45.4212 119.919 43.1027 122.131 42.0747L142.963 32.3909Z" fill="url(#paint13_linear_4006_394)"/>
<path d="M119.587 26.3547C119.587 24.2089 121.717 22.4693 124.344 22.4693C126.972 22.4693 129.102 24.2089 129.102 26.3547V45.3967C129.102 47.5426 126.972 49.2821 124.344 49.2821C121.717 49.2821 119.587 47.5426 119.587 45.3967V26.3547Z" fill="url(#paint14_linear_4006_394)"/>
<path d="M147.43 51.9148C149.739 52.9877 150.545 55.3427 149.231 57.1747C147.917 59.0068 144.981 59.6222 142.673 58.5492L122.191 49.0283C119.883 47.9553 119.077 45.6004 120.39 43.7683C121.704 41.9363 124.64 41.3209 126.948 42.3938L147.43 51.9148Z" fill="url(#paint15_linear_4006_394)"/>
<path d="M70.3508 121.562H79.8657V72.8115H70.3508V121.562Z" fill="url(#paint16_linear_4006_394)"/>
<path d="M70.3508 121.562H79.8657V129.687H70.3508V121.562Z" fill="url(#paint17_linear_4006_394)"/>
<path d="M70.3508 145.944C70.3508 148.184 72.4808 150 75.1083 150C77.7357 150 79.8657 148.184 79.8657 145.944V125.618C79.8657 123.378 77.7357 121.562 75.1083 121.562C72.4808 121.562 70.3508 123.378 70.3508 125.618V145.944Z" fill="url(#paint18_linear_4006_394)"/>
<path d="M52.1143 131.993C49.8369 133.116 49.0557 135.601 50.3695 137.544C51.6832 139.487 54.5944 140.152 56.8718 139.029L77.4652 128.876C79.7426 127.754 80.5238 125.268 79.21 123.325C77.8963 121.382 74.9851 120.717 72.7077 121.84L52.1143 131.993Z" fill="url(#paint19_linear_4006_394)"/>
<path d="M93.6406 139.029C95.918 140.152 98.8292 139.487 100.143 137.544C101.457 135.601 100.675 133.116 98.398 131.993L77.8046 121.84C75.5272 120.717 72.616 121.382 71.3023 123.325C69.9886 125.268 70.7698 127.754 73.0472 128.876L93.6406 139.029Z" fill="url(#paint20_linear_4006_394)"/>
<path d="M27.1158 96.5521L31.8733 103.589L81.3143 79.2134L76.5568 72.1768L27.1158 96.5521Z" fill="url(#paint21_linear_4006_394)"/>
<path d="M27.1158 96.5521L31.8733 103.589L23.6331 107.651L18.8757 100.615L27.1158 96.5521Z" fill="url(#paint22_linear_4006_394)"/>
<path d="M2.39887 108.738C0.121467 109.861 -0.659738 112.346 0.653999 114.289C1.96774 116.232 4.87893 116.897 7.15632 115.775L27.7497 105.622C30.0271 104.499 30.8083 102.013 29.4946 100.07C28.1808 98.1273 25.2696 97.4623 22.9923 98.5851L2.39887 108.738Z" fill="url(#paint23_linear_4006_394)"/>
<path d="M7.41393 88.2785C5.13944 87.1571 2.23061 87.8233 0.91687 89.7664C-0.396867 91.7095 0.381977 94.1937 2.65647 95.3151L23.2604 105.473C25.5349 106.595 28.4437 105.928 29.7574 103.985C31.0712 102.042 30.2923 99.558 28.0179 98.4366L7.41393 88.2785Z" fill="url(#paint24_linear_4006_394)"/>
<path d="M21.0461 122.514C21.0461 124.757 23.1761 126.575 25.8036 126.575C28.4311 126.575 30.561 124.757 30.561 122.514L30.561 102.198C30.561 99.9554 28.4311 98.1373 25.8036 98.1373C23.1761 98.1373 21.0461 99.9554 21.0461 102.198L21.0461 122.514Z" fill="url(#paint25_linear_4006_394)"/>
<path d="M118.127 103.401L122.884 96.3646L73.4432 71.9893L68.6857 79.0259L118.127 103.401Z" fill="url(#paint26_linear_4006_394)"/>
<path d="M118.127 103.401L122.884 96.3646L131.124 100.427L126.367 107.464L118.127 103.401Z" fill="url(#paint27_linear_4006_394)"/>
<path d="M142.844 115.587C145.121 116.71 148.032 116.045 149.346 114.102C150.66 112.159 149.879 109.673 147.601 108.551L127.008 98.3977C124.73 97.2749 121.819 97.9398 120.505 99.8829C119.192 101.826 119.973 104.311 122.25 105.434L142.844 115.587Z" fill="url(#paint28_linear_4006_394)"/>
<path d="M119.587 122.108C119.587 124.351 121.717 126.169 124.344 126.169C126.972 126.169 129.102 124.351 129.102 122.108V101.792C129.102 99.5491 126.972 97.731 124.344 97.731C121.717 97.731 119.587 99.5491 119.587 101.792L119.587 122.108Z" fill="url(#paint29_linear_4006_394)"/>
<path d="M147.491 94.9088C149.766 93.7875 150.545 91.3032 149.231 89.3601C147.917 87.417 145.008 86.7509 142.734 87.8723L122.13 98.0304C119.856 99.1517 119.077 101.636 120.39 103.579C121.704 105.522 124.613 106.188 126.888 105.067L147.491 94.9088Z" fill="url(#paint30_linear_4006_394)"/>
<path d="M70.3508 121.562H79.8657V72.8115H70.3508V121.562Z" fill="url(#paint31_linear_4006_394)"/>
<path d="M70.3508 145.944C70.3508 148.184 72.4808 150 75.1083 150C77.7357 150 79.8657 148.184 79.8657 145.944V125.618C79.8657 123.378 77.7357 121.562 75.1083 121.562C72.4808 121.562 70.3508 123.378 70.3508 125.618V145.944Z" fill="url(#paint32_linear_4006_394)"/>
<path d="M52.1143 131.993C49.8369 133.116 49.0557 135.601 50.3695 137.544C51.6832 139.487 54.5944 140.152 56.8718 139.029L77.4652 128.876C79.7426 127.754 80.5238 125.268 79.21 123.325C77.8963 121.382 74.9851 120.717 72.7077 121.84L52.1143 131.993Z" fill="url(#paint33_linear_4006_394)"/>
<path d="M93.6406 139.029C95.918 140.152 98.8292 139.487 100.143 137.544C101.457 135.601 100.675 133.116 98.398 131.993L77.8046 121.84C75.5272 120.717 72.616 121.382 71.3023 123.325C69.9886 125.268 70.7698 127.754 73.0472 128.876L93.6406 139.029Z" fill="url(#paint34_linear_4006_394)"/>
<path d="M27.1158 96.5521L31.8733 103.589L81.3143 79.2134L76.5568 72.1768L27.1158 96.5521Z" fill="url(#paint35_linear_4006_394)"/>
<path d="M2.39887 108.738C0.121467 109.861 -0.659738 112.346 0.653999 114.289C1.96774 116.232 4.87893 116.897 7.15632 115.775L27.7497 105.622C30.0271 104.499 30.8083 102.013 29.4946 100.07C28.1808 98.1273 25.2696 97.4623 22.9923 98.5851L2.39887 108.738Z" fill="url(#paint36_linear_4006_394)"/>
<path d="M7.41393 88.2785C5.13944 87.1571 2.23061 87.8233 0.91687 89.7664C-0.396867 91.7095 0.381977 94.1937 2.65647 95.3151L23.2604 105.473C25.5349 106.595 28.4437 105.928 29.7574 103.985C31.0712 102.042 30.2923 99.558 28.0179 98.4366L7.41393 88.2785Z" fill="url(#paint37_linear_4006_394)"/>
<path d="M21.0461 122.514C21.0461 124.757 23.1761 126.575 25.8036 126.575C28.4311 126.575 30.561 124.757 30.561 122.514L30.561 102.198C30.561 99.9554 28.4311 98.1373 25.8036 98.1373C23.1761 98.1373 21.0461 99.9554 21.0461 102.198L21.0461 122.514Z" fill="url(#paint38_linear_4006_394)"/>
<path d="M118.127 103.401L122.884 96.3646L73.4432 71.9893L68.6857 79.0259L118.127 103.401Z" fill="url(#paint39_linear_4006_394)"/>
<path d="M142.844 115.587C145.121 116.71 148.032 116.045 149.346 114.102C150.66 112.159 149.879 109.673 147.601 108.551L127.008 98.3977C124.73 97.2749 121.819 97.9398 120.505 99.8829C119.192 101.826 119.973 104.311 122.25 105.434L142.844 115.587Z" fill="url(#paint40_linear_4006_394)"/>
<path d="M119.587 122.108C119.587 124.351 121.717 126.169 124.344 126.169C126.972 126.169 129.102 124.351 129.102 122.108V101.792C129.102 99.5491 126.972 97.731 124.344 97.731C121.717 97.731 119.587 99.5491 119.587 101.792L119.587 122.108Z" fill="url(#paint41_linear_4006_394)"/>
<path d="M147.491 94.9088C149.766 93.7875 150.545 91.3032 149.231 89.3601C147.917 87.417 145.008 86.7509 142.734 87.8723L122.13 98.0304C119.856 99.1517 119.077 101.636 120.39 103.579C121.704 105.522 124.613 106.188 126.888 105.067L147.491 94.9088Z" fill="url(#paint42_linear_4006_394)"/>
</g>
<defs>
<linearGradient id="paint0_linear_4006_394" x1="200" y1="75" x2="701" y2="75" gradientUnits="userSpaceOnUse">
<stop stop-color="#F97316"/>
<stop offset="1" stop-color="#EF4444"/>
</linearGradient>
<linearGradient id="paint1_linear_4006_394" x1="75" y1="0" x2="75" y2="150" gradientUnits="userSpaceOnUse">
<stop stop-color="#F97316"/>
<stop offset="1" stop-color="#EF4444"/>
</linearGradient>
<linearGradient id="paint2_linear_4006_394" x1="75" y1="0" x2="75" y2="150" gradientUnits="userSpaceOnUse">
<stop stop-color="#F97316"/>
<stop offset="1" stop-color="#EF4444"/>
</linearGradient>
<linearGradient id="paint3_linear_4006_394" x1="75" y1="0" x2="75" y2="150" gradientUnits="userSpaceOnUse">
<stop stop-color="#F97316"/>
<stop offset="1" stop-color="#EF4444"/>
</linearGradient>
<linearGradient id="paint4_linear_4006_394" x1="75" y1="0" x2="75" y2="150" gradientUnits="userSpaceOnUse">
<stop stop-color="#F97316"/>
<stop offset="1" stop-color="#EF4444"/>
</linearGradient>
<linearGradient id="paint5_linear_4006_394" x1="75" y1="0" x2="75" y2="150" gradientUnits="userSpaceOnUse">
<stop stop-color="#F97316"/>
<stop offset="1" stop-color="#EF4444"/>
</linearGradient>
<linearGradient id="paint6_linear_4006_394" x1="75" y1="0" x2="75" y2="150" gradientUnits="userSpaceOnUse">
<stop stop-color="#F97316"/>
<stop offset="1" stop-color="#EF4444"/>
</linearGradient>
<linearGradient id="paint7_linear_4006_394" x1="75" y1="0" x2="75" y2="150" gradientUnits="userSpaceOnUse">
<stop stop-color="#F97316"/>
<stop offset="1" stop-color="#EF4444"/>
</linearGradient>
<linearGradient id="paint8_linear_4006_394" x1="75" y1="0" x2="75" y2="150" gradientUnits="userSpaceOnUse">
<stop stop-color="#F97316"/>
<stop offset="1" stop-color="#EF4444"/>
</linearGradient>
<linearGradient id="paint9_linear_4006_394" x1="75" y1="0" x2="75" y2="150" gradientUnits="userSpaceOnUse">
<stop stop-color="#F97316"/>
<stop offset="1" stop-color="#EF4444"/>
</linearGradient>
<linearGradient id="paint10_linear_4006_394" x1="75" y1="0" x2="75" y2="150" gradientUnits="userSpaceOnUse">
<stop stop-color="#F97316"/>
<stop offset="1" stop-color="#EF4444"/>
</linearGradient>
<linearGradient id="paint11_linear_4006_394" x1="75" y1="0" x2="75" y2="150" gradientUnits="userSpaceOnUse">
<stop stop-color="#F97316"/>
<stop offset="1" stop-color="#EF4444"/>
</linearGradient>
<linearGradient id="paint12_linear_4006_394" x1="75" y1="0" x2="75" y2="150" gradientUnits="userSpaceOnUse">
<stop stop-color="#F97316"/>
<stop offset="1" stop-color="#EF4444"/>
</linearGradient>
<linearGradient id="paint13_linear_4006_394" x1="75" y1="0" x2="75" y2="150" gradientUnits="userSpaceOnUse">
<stop stop-color="#F97316"/>
<stop offset="1" stop-color="#EF4444"/>
</linearGradient>
<linearGradient id="paint14_linear_4006_394" x1="75" y1="0" x2="75" y2="150" gradientUnits="userSpaceOnUse">
<stop stop-color="#F97316"/>
<stop offset="1" stop-color="#EF4444"/>
</linearGradient>
<linearGradient id="paint15_linear_4006_394" x1="75" y1="0" x2="75" y2="150" gradientUnits="userSpaceOnUse">
<stop stop-color="#F97316"/>
<stop offset="1" stop-color="#EF4444"/>
</linearGradient>
<linearGradient id="paint16_linear_4006_394" x1="75" y1="0" x2="75" y2="150" gradientUnits="userSpaceOnUse">
<stop stop-color="#F97316"/>
<stop offset="1" stop-color="#EF4444"/>
</linearGradient>
<linearGradient id="paint17_linear_4006_394" x1="75" y1="0" x2="75" y2="150" gradientUnits="userSpaceOnUse">
<stop stop-color="#F97316"/>
<stop offset="1" stop-color="#EF4444"/>
</linearGradient>
<linearGradient id="paint18_linear_4006_394" x1="75" y1="0" x2="75" y2="150" gradientUnits="userSpaceOnUse">
<stop stop-color="#F97316"/>
<stop offset="1" stop-color="#EF4444"/>
</linearGradient>
<linearGradient id="paint19_linear_4006_394" x1="75" y1="0" x2="75" y2="150" gradientUnits="userSpaceOnUse">
<stop stop-color="#F97316"/>
<stop offset="1" stop-color="#EF4444"/>
</linearGradient>
<linearGradient id="paint20_linear_4006_394" x1="75" y1="0" x2="75" y2="150" gradientUnits="userSpaceOnUse">
<stop stop-color="#F97316"/>
<stop offset="1" stop-color="#EF4444"/>
</linearGradient>
<linearGradient id="paint21_linear_4006_394" x1="75" y1="0" x2="75" y2="150" gradientUnits="userSpaceOnUse">
<stop stop-color="#F97316"/>
<stop offset="1" stop-color="#EF4444"/>
</linearGradient>
<linearGradient id="paint22_linear_4006_394" x1="75" y1="0" x2="75" y2="150" gradientUnits="userSpaceOnUse">
<stop stop-color="#F97316"/>
<stop offset="1" stop-color="#EF4444"/>
</linearGradient>
<linearGradient id="paint23_linear_4006_394" x1="75" y1="0" x2="75" y2="150" gradientUnits="userSpaceOnUse">
<stop stop-color="#F97316"/>
<stop offset="1" stop-color="#EF4444"/>
</linearGradient>
<linearGradient id="paint24_linear_4006_394" x1="75" y1="0" x2="75" y2="150" gradientUnits="userSpaceOnUse">
<stop stop-color="#F97316"/>
<stop offset="1" stop-color="#EF4444"/>
</linearGradient>
<linearGradient id="paint25_linear_4006_394" x1="75" y1="0" x2="75" y2="150" gradientUnits="userSpaceOnUse">
<stop stop-color="#F97316"/>
<stop offset="1" stop-color="#EF4444"/>
</linearGradient>
<linearGradient id="paint26_linear_4006_394" x1="75" y1="0" x2="75" y2="150" gradientUnits="userSpaceOnUse">
<stop stop-color="#F97316"/>
<stop offset="1" stop-color="#EF4444"/>
</linearGradient>
<linearGradient id="paint27_linear_4006_394" x1="75" y1="0" x2="75" y2="150" gradientUnits="userSpaceOnUse">
<stop stop-color="#F97316"/>
<stop offset="1" stop-color="#EF4444"/>
</linearGradient>
<linearGradient id="paint28_linear_4006_394" x1="75" y1="0" x2="75" y2="150" gradientUnits="userSpaceOnUse">
<stop stop-color="#F97316"/>
<stop offset="1" stop-color="#EF4444"/>
</linearGradient>
<linearGradient id="paint29_linear_4006_394" x1="75" y1="0" x2="75" y2="150" gradientUnits="userSpaceOnUse">
<stop stop-color="#F97316"/>
<stop offset="1" stop-color="#EF4444"/>
</linearGradient>
<linearGradient id="paint30_linear_4006_394" x1="75" y1="0" x2="75" y2="150" gradientUnits="userSpaceOnUse">
<stop stop-color="#F97316"/>
<stop offset="1" stop-color="#EF4444"/>
</linearGradient>
<linearGradient id="paint31_linear_4006_394" x1="75" y1="0" x2="75" y2="150" gradientUnits="userSpaceOnUse">
<stop stop-color="#F97316"/>
<stop offset="1" stop-color="#EF4444"/>
</linearGradient>
<linearGradient id="paint32_linear_4006_394" x1="75" y1="0" x2="75" y2="150" gradientUnits="userSpaceOnUse">
<stop stop-color="#F97316"/>
<stop offset="1" stop-color="#EF4444"/>
</linearGradient>
<linearGradient id="paint33_linear_4006_394" x1="75" y1="0" x2="75" y2="150" gradientUnits="userSpaceOnUse">
<stop stop-color="#F97316"/>
<stop offset="1" stop-color="#EF4444"/>
</linearGradient>
<linearGradient id="paint34_linear_4006_394" x1="75" y1="0" x2="75" y2="150" gradientUnits="userSpaceOnUse">
<stop stop-color="#F97316"/>
<stop offset="1" stop-color="#EF4444"/>
</linearGradient>
<linearGradient id="paint35_linear_4006_394" x1="75" y1="0" x2="75" y2="150" gradientUnits="userSpaceOnUse">
<stop stop-color="#F97316"/>
<stop offset="1" stop-color="#EF4444"/>
</linearGradient>
<linearGradient id="paint36_linear_4006_394" x1="75" y1="0" x2="75" y2="150" gradientUnits="userSpaceOnUse">
<stop stop-color="#F97316"/>
<stop offset="1" stop-color="#EF4444"/>
</linearGradient>
<linearGradient id="paint37_linear_4006_394" x1="75" y1="0" x2="75" y2="150" gradientUnits="userSpaceOnUse">
<stop stop-color="#F97316"/>
<stop offset="1" stop-color="#EF4444"/>
</linearGradient>
<linearGradient id="paint38_linear_4006_394" x1="75" y1="0" x2="75" y2="150" gradientUnits="userSpaceOnUse">
<stop stop-color="#F97316"/>
<stop offset="1" stop-color="#EF4444"/>
</linearGradient>
<linearGradient id="paint39_linear_4006_394" x1="75" y1="0" x2="75" y2="150" gradientUnits="userSpaceOnUse">
<stop stop-color="#F97316"/>
<stop offset="1" stop-color="#EF4444"/>
</linearGradient>
<linearGradient id="paint40_linear_4006_394" x1="75" y1="0" x2="75" y2="150" gradientUnits="userSpaceOnUse">
<stop stop-color="#F97316"/>
<stop offset="1" stop-color="#EF4444"/>
</linearGradient>
<linearGradient id="paint41_linear_4006_394" x1="75" y1="0" x2="75" y2="150" gradientUnits="userSpaceOnUse">
<stop stop-color="#F97316"/>
<stop offset="1" stop-color="#EF4444"/>
</linearGradient>
<linearGradient id="paint42_linear_4006_394" x1="75" y1="0" x2="75" y2="150" gradientUnits="userSpaceOnUse">
<stop stop-color="#F97316"/>
<stop offset="1" stop-color="#EF4444"/>
</linearGradient>
</defs>
</svg>
