<svg width="702" height="150" viewBox="0 0 702 150" fill="none" xmlns="http://www.w3.org/2000/svg">
<path d="M207.068 110V40.1818H221.83V97.8295H251.761V110H207.068ZM285.128 111.023C279.741 111.023 275.105 109.932 271.219 107.75C267.355 105.545 264.378 102.432 262.287 98.4091C260.196 94.3636 259.151 89.5795 259.151 84.0568C259.151 78.6705 260.196 73.9432 262.287 69.875C264.378 65.8068 267.321 62.6364 271.116 60.3636C274.935 58.0909 279.412 56.9545 284.548 56.9545C288.003 56.9545 291.219 57.5114 294.196 58.625C297.196 59.7159 299.81 61.3636 302.037 63.5682C304.287 65.7727 306.037 68.5455 307.287 71.8864C308.537 75.2045 309.162 79.0909 309.162 83.5455V87.5341H264.946V78.5341H295.491C295.491 76.4432 295.037 74.5909 294.128 72.9773C293.219 71.3636 291.957 70.1023 290.344 69.1932C288.753 68.2614 286.901 67.7955 284.787 67.7955C282.582 67.7955 280.628 68.3068 278.923 69.3295C277.241 70.3295 275.923 71.6818 274.969 73.3864C274.014 75.0682 273.526 76.9432 273.503 79.0114V87.5682C273.503 90.1591 273.98 92.3977 274.935 94.2841C275.912 96.1705 277.287 97.625 279.06 98.6477C280.832 99.6705 282.935 100.182 285.366 100.182C286.98 100.182 288.457 99.9545 289.798 99.5C291.139 99.0455 292.287 98.3636 293.241 97.4545C294.196 96.5455 294.923 95.4318 295.423 94.1136L308.855 95C308.173 98.2273 306.776 101.045 304.662 103.455C302.571 105.841 299.866 107.705 296.548 109.045C293.253 110.364 289.446 111.023 285.128 111.023ZM342.298 111.023C336.935 111.023 332.321 109.886 328.457 107.614C324.616 105.318 321.662 102.136 319.594 98.0682C317.548 94 316.526 89.3182 316.526 84.0227C316.526 78.6591 317.56 73.9545 319.628 69.9091C321.719 65.8409 324.685 62.6705 328.526 60.3977C332.366 58.1023 336.935 56.9545 342.23 56.9545C346.798 56.9545 350.798 57.7841 354.23 59.4432C357.662 61.1023 360.378 63.4318 362.378 66.4318C364.378 69.4318 365.48 72.9545 365.685 77H351.98C351.594 74.3864 350.571 72.2841 348.912 70.6932C347.276 69.0795 345.128 68.2727 342.469 68.2727C340.219 68.2727 338.253 68.8864 336.571 70.1136C334.912 71.3182 333.616 73.0795 332.685 75.3977C331.753 77.7159 331.287 80.5227 331.287 83.8182C331.287 87.1591 331.741 90 332.651 92.3409C333.582 94.6818 334.889 96.4659 336.571 97.6932C338.253 98.9205 340.219 99.5341 342.469 99.5341C344.128 99.5341 345.616 99.1932 346.935 98.5114C348.276 97.8295 349.378 96.8409 350.241 95.5455C351.128 94.2273 351.707 92.6477 351.98 90.8068H365.685C365.457 94.8068 364.366 98.3295 362.412 101.375C360.48 104.398 357.81 106.761 354.401 108.466C350.991 110.17 346.957 111.023 342.298 111.023ZM402.835 57.6364V68.5455H371.301V57.6364H402.835ZM378.46 45.0909H392.983V93.9091C392.983 95.25 393.188 96.2955 393.597 97.0455C394.006 97.7727 394.574 98.2841 395.301 98.5795C396.051 98.875 396.915 99.0227 397.892 99.0227C398.574 99.0227 399.256 98.9659 399.938 98.8523C400.619 98.7159 401.142 98.6136 401.506 98.5455L403.79 109.352C403.063 109.58 402.04 109.841 400.722 110.136C399.403 110.455 397.801 110.648 395.915 110.716C392.415 110.852 389.347 110.386 386.71 109.318C384.097 108.25 382.063 106.591 380.608 104.341C379.153 102.091 378.438 99.25 378.46 95.8182V45.0909ZM445.875 87.7045V57.6364H460.398V110H446.455V100.489H445.909C444.727 103.557 442.761 106.023 440.011 107.886C437.284 109.75 433.955 110.682 430.023 110.682C426.523 110.682 423.443 109.886 420.784 108.295C418.125 106.705 416.045 104.443 414.545 101.511C413.068 98.5795 412.318 95.0682 412.295 90.9773V57.6364H426.818V88.3864C426.841 91.4773 427.67 93.9205 429.307 95.7159C430.943 97.5114 433.136 98.4091 435.886 98.4091C437.636 98.4091 439.273 98.0114 440.795 97.2159C442.318 96.3977 443.545 95.1932 444.477 93.6023C445.432 92.0114 445.898 90.0455 445.875 87.7045ZM472.014 110V57.6364H486.094V66.7727H486.639C487.594 63.5227 489.196 61.0682 491.446 59.4091C493.696 57.7273 496.287 56.8864 499.219 56.8864C499.946 56.8864 500.73 56.9318 501.571 57.0227C502.412 57.1136 503.151 57.2386 503.787 57.3977V70.2841C503.105 70.0795 502.162 69.8977 500.957 69.7386C499.753 69.5795 498.651 69.5 497.651 69.5C495.514 69.5 493.605 69.9659 491.923 70.8977C490.264 71.8068 488.946 73.0795 487.969 74.7159C487.014 76.3523 486.537 78.2386 486.537 80.375V110H472.014ZM524.727 110.989C521.386 110.989 518.409 110.409 515.795 109.25C513.182 108.068 511.114 106.33 509.591 104.034C508.091 101.716 507.341 98.8295 507.341 95.375C507.341 92.4659 507.875 90.0227 508.943 88.0455C510.011 86.0682 511.466 84.4773 513.307 83.2727C515.148 82.0682 517.239 81.1591 519.58 80.5455C521.943 79.9318 524.42 79.5 527.011 79.25C530.057 78.9318 532.511 78.6364 534.375 78.3636C536.239 78.0682 537.591 77.6364 538.432 77.0682C539.273 76.5 539.693 75.6591 539.693 74.5455V74.3409C539.693 72.1818 539.011 70.5114 537.648 69.3295C536.307 68.1477 534.398 67.5568 531.92 67.5568C529.307 67.5568 527.227 68.1364 525.682 69.2955C524.136 70.4318 523.114 71.8636 522.614 73.5909L509.182 72.5C509.864 69.3182 511.205 66.5682 513.205 64.25C515.205 61.9091 517.784 60.1136 520.943 58.8636C524.125 57.5909 527.807 56.9545 531.989 56.9545C534.898 56.9545 537.682 57.2955 540.341 57.9773C543.023 58.6591 545.398 59.7159 547.466 61.1477C549.557 62.5795 551.205 64.4205 552.409 66.6705C553.614 68.8977 554.216 71.5682 554.216 74.6818V110H540.443V102.739H540.034C539.193 104.375 538.068 105.818 536.659 107.068C535.25 108.295 533.557 109.261 531.58 109.966C529.602 110.648 527.318 110.989 524.727 110.989ZM528.886 100.966C531.023 100.966 532.909 100.545 534.545 99.7045C536.182 98.8409 537.466 97.6818 538.398 96.2273C539.33 94.7727 539.795 93.125 539.795 91.2841V85.7273C539.341 86.0227 538.716 86.2955 537.92 86.5455C537.148 86.7727 536.273 86.9886 535.295 87.1932C534.318 87.375 533.341 87.5455 532.364 87.7045C531.386 87.8409 530.5 87.9659 529.705 88.0795C528 88.3295 526.511 88.7273 525.239 89.2727C523.966 89.8182 522.977 90.5568 522.273 91.4886C521.568 92.3977 521.216 93.5341 521.216 94.8977C521.216 96.875 521.932 98.3864 523.364 99.4318C524.818 100.455 526.659 100.966 528.886 100.966ZM565.756 110V40.1818H580.517V97.8295H610.449V110H565.756ZM620.224 40.1818H638.429L657.656 87.0909H658.474L677.702 40.1818H695.906V110H681.588V64.5568H681.009L662.94 109.659H653.19L635.122 64.3864H634.543V110H620.224V40.1818Z" fill="url(#paint0_linear_4020_295)"/>
<path d="M69.5153 36.0217C69.5153 33.6262 71.8274 31.6843 74.6795 31.6843H75.0258C77.8779 31.6843 80.1901 33.6262 80.1901 36.0217V75.7785C80.1901 78.174 77.8779 80.116 75.0258 80.116H74.6795C71.8274 80.116 69.5153 78.174 69.5153 75.7785V36.0217Z" fill="url(#paint1_linear_4020_295)"/>
<path d="M69.5153 31.6843H80.1901V36.2106H69.5153V31.6843Z" fill="url(#paint2_linear_4020_295)"/>
<path d="M69.5153 6.15037C69.5153 3.50356 71.9049 1.3579 74.8527 1.3579C77.8005 1.3579 80.1901 3.50356 80.1901 6.15037V28.2497C80.1901 30.8965 77.8005 33.0422 74.8527 33.0422C71.9049 33.0422 69.5153 30.8965 69.5153 28.2497V6.15037Z" fill="url(#paint3_linear_4020_295)"/>
<path d="M48.7602 21.0386C46.186 19.7152 45.294 16.7996 46.7679 14.5264C48.2417 12.2533 51.5234 11.4834 54.0976 12.8068L75.591 23.8564C78.1652 25.1798 79.0572 28.0954 77.5833 30.3686C76.1094 32.6417 72.8278 33.4117 70.2536 32.0883L48.7602 21.0386Z" fill="url(#paint4_linear_4020_295)"/>
<path d="M95.6697 12.8068C98.244 11.4834 101.526 12.2533 102.999 14.5264C104.473 16.7996 103.581 19.7152 101.007 21.0386L79.5138 32.0883C76.9395 33.4117 73.6579 32.6417 72.184 30.3686C70.7101 28.0954 71.6021 25.1798 74.1764 23.8564L95.6697 12.8068Z" fill="url(#paint5_linear_4020_295)"/>
<path d="M80.252 27.4289C80.252 30.0757 77.8624 32.2213 74.9146 32.2213C71.9669 32.2213 69.5772 30.0757 69.5772 27.4289V5.32953C69.5772 2.68272 71.9669 0.537059 74.9146 0.537059C77.8624 0.537059 80.252 2.68272 80.252 5.32953V27.4289Z" fill="url(#paint6_linear_4020_295)"/>
<path d="M101.007 12.5407C103.581 13.8641 104.473 16.7796 102.999 19.0528C101.526 21.326 98.2439 22.0959 95.6697 20.7725L74.1764 9.7228C71.6021 8.3994 70.7101 5.48381 72.184 3.21066C73.6579 0.937507 76.9395 0.167583 79.5138 1.49099L101.007 12.5407Z" fill="url(#paint7_linear_4020_295)"/>
<path d="M54.0976 20.7725C51.5234 22.0959 48.2417 21.326 46.7678 19.0528C45.294 16.7796 46.186 13.8641 48.7602 12.5407L70.2535 1.49098C72.8278 0.167578 76.1094 0.937503 77.5833 3.21066C79.0572 5.48381 78.1652 8.3994 75.5909 9.7228L54.0976 20.7725Z" fill="url(#paint8_linear_4020_295)"/>
<path d="M80.6984 4.52633C80.6984 7.02615 78.0812 9.05265 74.8527 9.05265C71.6242 9.05265 69.007 7.02615 69.007 4.52633C69.007 2.02651 71.6242 0 74.8527 0C78.0812 0 80.6984 2.02651 80.6984 4.52633Z" fill="url(#paint9_linear_4020_295)"/>
<path d="M61.3821 12.2211H88.3233V21.2737H61.3821V12.2211Z" fill="url(#paint10_linear_4020_295)"/>
<path d="M33.434 59.5647C31.0013 58.3141 30.1351 55.5948 31.4992 53.491L31.8969 52.8777C33.2609 50.7739 36.3387 50.0823 38.7714 51.3329L77.0657 71.0199C79.4983 72.2705 80.3646 74.9897 79.0005 77.0935L78.6028 77.7069C77.2387 79.8107 74.1609 80.5023 71.7283 79.2517L33.434 59.5647Z" fill="url(#paint11_linear_4020_295)"/>
<path d="M29.0293 57.3003L34.3667 49.0684L38.7689 51.3316L33.4315 59.5634L29.0293 57.3003Z" fill="url(#paint12_linear_4020_295)"/>
<path d="M4.19555 44.5333C1.62132 43.2099 0.72931 40.2943 2.20319 38.0212C3.67707 35.748 6.95872 34.9781 9.53295 36.3015L31.0263 47.3512C33.6005 48.6746 34.4925 51.5902 33.0187 53.8633C31.5448 56.1365 28.2631 56.9064 25.6889 55.583L4.19555 44.5333Z" fill="url(#paint13_linear_4020_295)"/>
<path d="M8.29797 67.9827C5.72373 69.3061 2.44209 68.5361 0.968211 66.263C-0.50567 63.9898 0.386339 61.0742 2.96057 59.7508L24.4539 48.7012C27.0282 47.3778 30.3098 48.1477 31.7837 50.4208C33.2576 52.694 32.3655 55.6096 29.7913 56.933L8.29797 67.9827Z" fill="url(#paint14_linear_4020_295)"/>
<path d="M23.7467 27.6927C23.7467 25.0459 26.1363 22.9002 29.0841 22.9002C32.0318 22.9002 34.4215 25.0459 34.4215 27.6927V49.792C34.4215 52.4388 32.0318 54.5845 29.0841 54.5845C26.1363 54.5845 23.7467 52.4388 23.7467 49.792V27.6927Z" fill="url(#paint15_linear_4020_295)"/>
<path d="M30.2589 46.893C32.8332 48.2164 33.7252 51.132 32.2513 53.4052C30.7774 55.6783 27.4958 56.4482 24.9215 55.1248L3.42819 44.0752C0.853961 42.7518 -0.0380476 39.8362 1.43583 37.563C2.90971 35.2899 6.19136 34.5199 8.76559 35.8433L30.2589 46.893Z" fill="url(#paint16_linear_4020_295)"/>
<path d="M26.1565 23.4437C28.7307 22.1203 32.0123 22.8902 33.4862 25.1634C34.9601 27.4365 34.0681 30.3521 31.4939 31.6755L10.0005 42.7252C7.42628 44.0486 4.14463 43.2786 2.67075 41.0055C1.19687 38.7323 2.08888 35.8168 4.66311 34.4933L26.1565 23.4437Z" fill="url(#paint17_linear_4020_295)"/>
<path d="M10.7078 63.7337C10.7078 66.3805 8.31813 68.5261 5.37037 68.5261C2.42261 68.5261 0.0329769 66.3805 0.032977 63.7337L0.0329777 41.6343C0.0329778 38.9875 2.42261 36.8418 5.37037 36.8418C8.31814 36.8418 10.7078 38.9875 10.7078 41.6343L10.7078 63.7337Z" fill="url(#paint18_linear_4020_295)"/>
<path d="M8.20761 35.0975C10.6389 36.3474 11.3012 39.3789 9.68696 41.8686C8.07271 44.3582 4.79316 45.3632 2.36189 44.1133C-0.0693821 42.8634 -0.73171 39.8319 0.882541 37.3422C2.49679 34.8526 5.77634 33.8476 8.20761 35.0975Z" fill="url(#paint19_linear_4020_295)"/>
<path d="M6.0332 53.8405L19.5038 33.065L28.3082 37.5913L14.8376 58.3669L6.0332 53.8405Z" fill="url(#paint20_linear_4020_295)"/>
<path d="M111.198 51.2851C113.63 50.0345 116.708 50.7261 118.072 52.8299L118.47 53.4433C119.834 55.5471 118.968 58.2663 116.535 59.5169L78.2407 79.2039C75.8081 80.4545 72.7303 79.7629 71.3662 77.6591L70.9685 77.0457C69.6044 74.942 70.4707 72.2227 72.9033 70.9721L111.198 51.2851Z" fill="url(#paint21_linear_4020_295)"/>
<path d="M115.602 49.0207L120.94 57.2525L116.537 59.5157L111.2 51.2838L115.602 49.0207Z" fill="url(#paint22_linear_4020_295)"/>
<path d="M140.436 36.2537C143.01 34.9303 146.292 35.7002 147.766 37.9734C149.24 40.2465 148.348 43.1621 145.774 44.4855L124.28 55.5352C121.706 56.8586 118.424 56.0887 116.95 53.8155C115.477 51.5424 116.369 48.6268 118.943 47.3034L140.436 36.2537Z" fill="url(#paint23_linear_4020_295)"/>
<path d="M115.579 27.6926C115.579 25.0458 117.968 22.9001 120.916 22.9001C123.864 22.9001 126.253 25.0458 126.253 27.6926V49.7919C126.253 52.4388 123.864 54.5844 120.916 54.5844C117.968 54.5844 115.579 52.4388 115.579 49.7919V27.6926Z" fill="url(#paint24_linear_4020_295)"/>
<path d="M147.039 59.7508C149.614 61.0742 150.506 63.9898 149.032 66.2629C147.558 68.5361 144.276 69.306 141.702 67.9826L120.209 56.9329C117.634 55.6095 116.742 52.6939 118.216 50.4208C119.69 48.1476 122.972 47.3777 125.546 48.7011L147.039 59.7508Z" fill="url(#paint25_linear_4020_295)"/>
<path d="M125.109 55.1725C122.535 56.4959 119.254 55.726 117.78 53.4528C116.306 51.1797 117.198 48.2641 119.772 46.9407L141.265 35.891C143.84 34.5676 147.121 35.3375 148.595 37.6107C150.069 39.8838 149.177 42.7994 146.603 44.1228L125.109 55.1725Z" fill="url(#paint26_linear_4020_295)"/>
<path d="M149.967 63.7336C149.967 66.3804 147.577 68.5261 144.63 68.5261C141.682 68.5261 139.292 66.3804 139.292 63.7336V41.6343C139.292 38.9875 141.682 36.8418 144.63 36.8418C147.577 36.8418 149.967 38.9875 149.967 41.6343V63.7336Z" fill="url(#paint27_linear_4020_295)"/>
<path d="M118.506 31.6754C115.932 30.352 115.04 27.4364 116.514 25.1633C117.988 22.8901 121.269 22.1202 123.844 23.4436L145.337 34.4933C147.911 35.8167 148.803 38.7323 147.329 41.0054C145.855 43.2786 142.574 44.0485 140 42.7251L118.506 31.6754Z" fill="url(#paint28_linear_4020_295)"/>
<path d="M147.607 44.0655C145.176 45.3154 141.896 44.3104 140.282 41.8208C138.668 39.3312 139.33 36.2996 141.761 35.0497C144.193 33.7998 147.472 34.8048 149.086 37.2945C150.701 39.7841 150.038 42.8156 147.607 44.0655Z" fill="url(#paint29_linear_4020_295)"/>
<path d="M130.465 33.0172L143.936 53.7927L135.131 58.3191L121.661 37.5435L130.465 33.0172Z" fill="url(#paint30_linear_4020_295)"/>
<path d="M80.4847 113.978C80.4847 116.374 78.1726 118.316 75.3205 118.316H74.9742C72.1221 118.316 69.8099 116.374 69.8099 113.978V74.2214C69.8099 71.8259 72.1221 69.884 74.9742 69.884H75.3205C78.1726 69.884 80.4847 71.8259 80.4847 74.2214V113.978Z" fill="url(#paint31_linear_4020_295)"/>
<path d="M80.4847 118.316H69.8099V113.789H80.4847V118.316Z" fill="url(#paint32_linear_4020_295)"/>
<path d="M80.4847 143.85C80.4847 146.496 78.0951 148.642 75.1473 148.642C72.1995 148.642 69.8099 146.496 69.8099 143.85V121.75C69.8099 119.103 72.1995 116.958 75.1473 116.958C78.0951 116.958 80.4847 119.103 80.4847 121.75V143.85Z" fill="url(#paint33_linear_4020_295)"/>
<path d="M101.24 128.961C103.814 130.285 104.706 133.2 103.232 135.474C101.758 137.747 98.4766 138.517 95.9024 137.193L74.409 126.144C71.8348 124.82 70.9428 121.905 72.4167 119.631C73.8906 117.358 77.1722 116.588 79.7464 117.912L101.24 128.961Z" fill="url(#paint34_linear_4020_295)"/>
<path d="M54.3303 137.193C51.756 138.517 48.4744 137.747 47.0005 135.474C45.5266 133.2 46.4186 130.285 48.9929 128.961L70.4862 117.912C73.0605 116.588 76.3421 117.358 77.816 119.631C79.2899 121.905 78.3979 124.82 75.8236 126.144L54.3303 137.193Z" fill="url(#paint35_linear_4020_295)"/>
<path d="M69.748 122.571C69.748 119.924 72.1376 117.779 75.0854 117.779C78.0331 117.779 80.4228 119.924 80.4228 122.571V144.67C80.4228 147.317 78.0331 149.463 75.0854 149.463C72.1376 149.463 69.748 147.317 69.748 144.67V122.571Z" fill="url(#paint36_linear_4020_295)"/>
<path d="M48.9929 137.459C46.4187 136.136 45.5266 133.22 47.0005 130.947C48.4744 128.674 51.7561 127.904 54.3303 129.228L75.8236 140.277C78.3979 141.601 79.2899 144.516 77.816 146.789C76.3421 149.062 73.0605 149.832 70.4862 148.509L48.9929 137.459Z" fill="url(#paint37_linear_4020_295)"/>
<path d="M95.9024 129.228C98.4766 127.904 101.758 128.674 103.232 130.947C104.706 133.22 103.814 136.136 101.24 137.459L79.7464 148.509C77.1722 149.832 73.8906 149.062 72.4167 146.789C70.9428 144.516 71.8348 141.601 74.4091 140.277L95.9024 129.228Z" fill="url(#paint38_linear_4020_295)"/>
<path d="M69.3016 145.474C69.3016 142.974 71.9188 140.947 75.1473 140.947C78.3758 140.947 80.993 142.974 80.993 145.474C80.993 147.973 78.3758 150 75.1473 150C71.9188 150 69.3016 147.973 69.3016 145.474Z" fill="url(#paint39_linear_4020_295)"/>
<path d="M88.6179 137.779H61.6767V128.726H88.6179V137.779Z" fill="url(#paint40_linear_4020_295)"/>
<path d="M116.566 90.4353C118.999 91.6859 119.865 94.4052 118.501 96.5089L118.103 97.1223C116.739 99.2261 113.661 99.9177 111.229 98.6671L72.9343 78.9801C70.5017 77.7295 69.6354 75.0103 70.9995 72.9065L71.3972 72.2931C72.7612 70.1893 75.8391 69.4977 78.2717 70.7483L116.566 90.4353Z" fill="url(#paint41_linear_4020_295)"/>
<path d="M120.971 92.6997L115.633 100.932L111.231 98.6684L116.568 90.4366L120.971 92.6997Z" fill="url(#paint42_linear_4020_295)"/>
<path d="M145.804 105.467C148.379 106.79 149.271 109.706 147.797 111.979C146.323 114.252 143.041 115.022 140.467 113.698L118.974 102.649C116.399 101.325 115.507 98.4098 116.981 96.1367C118.455 93.8635 121.737 93.0936 124.311 94.417L145.804 105.467Z" fill="url(#paint43_linear_4020_295)"/>
<path d="M141.702 82.0174C144.276 80.694 147.558 81.4639 149.032 83.737C150.506 86.0102 149.614 88.9258 147.039 90.2492L125.546 101.299C122.972 102.622 119.69 101.852 118.216 99.5792C116.742 97.306 117.634 94.3904 120.209 93.067L141.702 82.0174Z" fill="url(#paint44_linear_4020_295)"/>
<path d="M126.253 122.307C126.253 124.954 123.864 127.1 120.916 127.1C117.968 127.1 115.579 124.954 115.579 122.307V100.208C115.579 97.5612 117.968 95.4156 120.916 95.4156C123.864 95.4156 126.253 97.5612 126.253 100.208V122.307Z" fill="url(#paint45_linear_4020_295)"/>
<path d="M119.741 103.107C117.167 101.784 116.275 98.868 117.749 96.5948C119.223 94.3217 122.504 93.5518 125.078 94.8752L146.572 105.925C149.146 107.248 150.038 110.164 148.564 112.437C147.09 114.71 143.809 115.48 141.234 114.157L119.741 103.107Z" fill="url(#paint46_linear_4020_295)"/>
<path d="M123.844 126.556C121.269 127.88 117.988 127.11 116.514 124.837C115.04 122.563 115.932 119.648 118.506 118.324L139.999 107.275C142.574 105.951 145.855 106.721 147.329 108.995C148.803 111.268 147.911 114.183 145.337 115.507L123.844 126.556Z" fill="url(#paint47_linear_4020_295)"/>
<path d="M139.292 86.2663C139.292 83.6195 141.682 81.4739 144.63 81.4739C147.577 81.4739 149.967 83.6195 149.967 86.2663V108.366C149.967 111.012 147.577 113.158 144.63 113.158C141.682 113.158 139.292 111.012 139.292 108.366V86.2663Z" fill="url(#paint48_linear_4020_295)"/>
<path d="M141.792 114.902C139.361 113.653 138.699 110.621 140.313 108.131C141.927 105.642 145.207 104.637 147.638 105.887C150.069 107.137 150.732 110.168 149.117 112.658C147.503 115.147 144.224 116.152 141.792 114.902Z" fill="url(#paint49_linear_4020_295)"/>
<path d="M143.967 96.1595L130.496 116.935L121.692 112.409L135.162 91.6331L143.967 96.1595Z" fill="url(#paint50_linear_4020_295)"/>
<path d="M38.8024 98.7149C36.3697 99.9655 33.2919 99.2738 31.9279 97.1701L31.5302 96.5567C30.1661 94.4529 31.0323 91.7337 33.465 90.4831L71.7593 70.796C74.1919 69.5454 77.2697 70.2371 78.6338 72.3409L79.0315 72.9542C80.3956 75.058 79.5293 77.7773 77.0967 79.0279L38.8024 98.7149Z" fill="url(#paint51_linear_4020_295)"/>
<path d="M34.3977 100.979L29.0603 92.7475L33.4625 90.4843L38.7999 98.7161L34.3977 100.979Z" fill="url(#paint52_linear_4020_295)"/>
<path d="M9.56388 113.746C6.98965 115.07 3.70801 114.3 2.23412 112.027C0.760244 109.753 1.65225 106.838 4.22648 105.514L25.7198 94.4648C28.2941 93.1414 31.5757 93.9113 33.0496 96.1845C34.5235 98.4576 33.6315 101.373 31.0572 102.697L9.56388 113.746Z" fill="url(#paint53_linear_4020_295)"/>
<path d="M34.4215 122.307C34.4215 124.954 32.0318 127.1 29.0841 127.1C26.1363 127.1 23.7467 124.954 23.7467 122.307V100.208C23.7467 97.5612 26.1363 95.4156 29.0841 95.4156C32.0318 95.4156 34.4215 97.5612 34.4215 100.208V122.307Z" fill="url(#paint54_linear_4020_295)"/>
<path d="M2.96059 90.2492C0.386358 88.9258 -0.505651 86.0102 0.96823 83.737C2.44211 81.4639 5.72375 80.694 8.29798 82.0174L29.7913 93.067C32.3656 94.3904 33.2576 97.306 31.7837 99.5792C30.3098 101.852 27.0282 102.622 24.4539 101.299L2.96059 90.2492Z" fill="url(#paint55_linear_4020_295)"/>
<path d="M24.8906 94.8274C27.4648 93.504 30.7464 94.274 32.2203 96.5471C33.6942 98.8203 32.8022 101.736 30.2279 103.059L8.73459 114.109C6.16036 115.432 2.87872 114.662 1.40484 112.389C-0.0690448 110.116 0.822966 107.201 3.3972 105.877L24.8906 94.8274Z" fill="url(#paint56_linear_4020_295)"/>
<path d="M0.0330161 86.2663C0.033016 83.6195 2.42265 81.4739 5.37041 81.4739C8.31817 81.4739 10.7078 83.6195 10.7078 86.2663L10.7078 108.366C10.7078 111.012 8.31818 113.158 5.37041 113.158C2.42265 113.158 0.033017 111.012 0.0330169 108.366L0.0330161 86.2663Z" fill="url(#paint57_linear_4020_295)"/>
<path d="M31.4938 118.325C34.0681 119.648 34.9601 122.564 33.4862 124.837C32.0123 127.11 28.7307 127.88 26.1564 126.556L4.66309 115.507C2.08886 114.183 1.19685 111.268 2.67073 108.995C4.14461 106.721 7.42626 105.951 10.0005 107.275L31.4938 118.325Z" fill="url(#paint58_linear_4020_295)"/>
<path d="M2.39286 105.934C4.82413 104.685 8.10368 105.69 9.71793 108.179C11.3322 110.669 10.6699 113.7 8.23858 114.95C5.8073 116.2 2.52776 115.195 0.913509 112.706C-0.700741 110.216 -0.0384135 107.184 2.39286 105.934Z" fill="url(#paint59_linear_4020_295)"/>
<path d="M19.5347 116.983L6.06418 96.2072L14.8686 91.6809L28.3392 112.456L19.5347 116.983Z" fill="url(#paint60_linear_4020_295)"/>
<defs>
<linearGradient id="paint0_linear_4020_295" x1="201" y1="75" x2="702" y2="75" gradientUnits="userSpaceOnUse">
<stop stop-color="#F97316"/>
<stop offset="1" stop-color="#EF4444"/>
</linearGradient>
<linearGradient id="paint1_linear_4020_295" x1="75" y1="0" x2="75" y2="150" gradientUnits="userSpaceOnUse">
<stop stop-color="#F97316"/>
<stop offset="1" stop-color="#EF4444"/>
</linearGradient>
<linearGradient id="paint2_linear_4020_295" x1="75" y1="0" x2="75" y2="150" gradientUnits="userSpaceOnUse">
<stop stop-color="#F97316"/>
<stop offset="1" stop-color="#EF4444"/>
</linearGradient>
<linearGradient id="paint3_linear_4020_295" x1="75" y1="0" x2="75" y2="150" gradientUnits="userSpaceOnUse">
<stop stop-color="#F97316"/>
<stop offset="1" stop-color="#EF4444"/>
</linearGradient>
<linearGradient id="paint4_linear_4020_295" x1="75" y1="0" x2="75" y2="150" gradientUnits="userSpaceOnUse">
<stop stop-color="#F97316"/>
<stop offset="1" stop-color="#EF4444"/>
</linearGradient>
<linearGradient id="paint5_linear_4020_295" x1="75" y1="0" x2="75" y2="150" gradientUnits="userSpaceOnUse">
<stop stop-color="#F97316"/>
<stop offset="1" stop-color="#EF4444"/>
</linearGradient>
<linearGradient id="paint6_linear_4020_295" x1="75" y1="0" x2="75" y2="150" gradientUnits="userSpaceOnUse">
<stop stop-color="#F97316"/>
<stop offset="1" stop-color="#EF4444"/>
</linearGradient>
<linearGradient id="paint7_linear_4020_295" x1="75" y1="0" x2="75" y2="150" gradientUnits="userSpaceOnUse">
<stop stop-color="#F97316"/>
<stop offset="1" stop-color="#EF4444"/>
</linearGradient>
<linearGradient id="paint8_linear_4020_295" x1="75" y1="0" x2="75" y2="150" gradientUnits="userSpaceOnUse">
<stop stop-color="#F97316"/>
<stop offset="1" stop-color="#EF4444"/>
</linearGradient>
<linearGradient id="paint9_linear_4020_295" x1="75" y1="0" x2="75" y2="150" gradientUnits="userSpaceOnUse">
<stop stop-color="#F97316"/>
<stop offset="1" stop-color="#EF4444"/>
</linearGradient>
<linearGradient id="paint10_linear_4020_295" x1="75" y1="0" x2="75" y2="150" gradientUnits="userSpaceOnUse">
<stop stop-color="#F97316"/>
<stop offset="1" stop-color="#EF4444"/>
</linearGradient>
<linearGradient id="paint11_linear_4020_295" x1="75" y1="0" x2="75" y2="150" gradientUnits="userSpaceOnUse">
<stop stop-color="#F97316"/>
<stop offset="1" stop-color="#EF4444"/>
</linearGradient>
<linearGradient id="paint12_linear_4020_295" x1="75" y1="0" x2="75" y2="150" gradientUnits="userSpaceOnUse">
<stop stop-color="#F97316"/>
<stop offset="1" stop-color="#EF4444"/>
</linearGradient>
<linearGradient id="paint13_linear_4020_295" x1="75" y1="0" x2="75" y2="150" gradientUnits="userSpaceOnUse">
<stop stop-color="#F97316"/>
<stop offset="1" stop-color="#EF4444"/>
</linearGradient>
<linearGradient id="paint14_linear_4020_295" x1="75" y1="0" x2="75" y2="150" gradientUnits="userSpaceOnUse">
<stop stop-color="#F97316"/>
<stop offset="1" stop-color="#EF4444"/>
</linearGradient>
<linearGradient id="paint15_linear_4020_295" x1="75" y1="0" x2="75" y2="150" gradientUnits="userSpaceOnUse">
<stop stop-color="#F97316"/>
<stop offset="1" stop-color="#EF4444"/>
</linearGradient>
<linearGradient id="paint16_linear_4020_295" x1="75" y1="0" x2="75" y2="150" gradientUnits="userSpaceOnUse">
<stop stop-color="#F97316"/>
<stop offset="1" stop-color="#EF4444"/>
</linearGradient>
<linearGradient id="paint17_linear_4020_295" x1="75" y1="0" x2="75" y2="150" gradientUnits="userSpaceOnUse">
<stop stop-color="#F97316"/>
<stop offset="1" stop-color="#EF4444"/>
</linearGradient>
<linearGradient id="paint18_linear_4020_295" x1="75" y1="0" x2="75" y2="150" gradientUnits="userSpaceOnUse">
<stop stop-color="#F97316"/>
<stop offset="1" stop-color="#EF4444"/>
</linearGradient>
<linearGradient id="paint19_linear_4020_295" x1="75" y1="0" x2="75" y2="150" gradientUnits="userSpaceOnUse">
<stop stop-color="#F97316"/>
<stop offset="1" stop-color="#EF4444"/>
</linearGradient>
<linearGradient id="paint20_linear_4020_295" x1="75" y1="0" x2="75" y2="150" gradientUnits="userSpaceOnUse">
<stop stop-color="#F97316"/>
<stop offset="1" stop-color="#EF4444"/>
</linearGradient>
<linearGradient id="paint21_linear_4020_295" x1="75" y1="0" x2="75" y2="150" gradientUnits="userSpaceOnUse">
<stop stop-color="#F97316"/>
<stop offset="1" stop-color="#EF4444"/>
</linearGradient>
<linearGradient id="paint22_linear_4020_295" x1="75" y1="0" x2="75" y2="150" gradientUnits="userSpaceOnUse">
<stop stop-color="#F97316"/>
<stop offset="1" stop-color="#EF4444"/>
</linearGradient>
<linearGradient id="paint23_linear_4020_295" x1="75" y1="0" x2="75" y2="150" gradientUnits="userSpaceOnUse">
<stop stop-color="#F97316"/>
<stop offset="1" stop-color="#EF4444"/>
</linearGradient>
<linearGradient id="paint24_linear_4020_295" x1="75" y1="0" x2="75" y2="150" gradientUnits="userSpaceOnUse">
<stop stop-color="#F97316"/>
<stop offset="1" stop-color="#EF4444"/>
</linearGradient>
<linearGradient id="paint25_linear_4020_295" x1="75" y1="0" x2="75" y2="150" gradientUnits="userSpaceOnUse">
<stop stop-color="#F97316"/>
<stop offset="1" stop-color="#EF4444"/>
</linearGradient>
<linearGradient id="paint26_linear_4020_295" x1="75" y1="0" x2="75" y2="150" gradientUnits="userSpaceOnUse">
<stop stop-color="#F97316"/>
<stop offset="1" stop-color="#EF4444"/>
</linearGradient>
<linearGradient id="paint27_linear_4020_295" x1="75" y1="0" x2="75" y2="150" gradientUnits="userSpaceOnUse">
<stop stop-color="#F97316"/>
<stop offset="1" stop-color="#EF4444"/>
</linearGradient>
<linearGradient id="paint28_linear_4020_295" x1="75" y1="0" x2="75" y2="150" gradientUnits="userSpaceOnUse">
<stop stop-color="#F97316"/>
<stop offset="1" stop-color="#EF4444"/>
</linearGradient>
<linearGradient id="paint29_linear_4020_295" x1="75" y1="0" x2="75" y2="150" gradientUnits="userSpaceOnUse">
<stop stop-color="#F97316"/>
<stop offset="1" stop-color="#EF4444"/>
</linearGradient>
<linearGradient id="paint30_linear_4020_295" x1="75" y1="0" x2="75" y2="150" gradientUnits="userSpaceOnUse">
<stop stop-color="#F97316"/>
<stop offset="1" stop-color="#EF4444"/>
</linearGradient>
<linearGradient id="paint31_linear_4020_295" x1="75" y1="0" x2="75" y2="150" gradientUnits="userSpaceOnUse">
<stop stop-color="#F97316"/>
<stop offset="1" stop-color="#EF4444"/>
</linearGradient>
<linearGradient id="paint32_linear_4020_295" x1="75" y1="0" x2="75" y2="150" gradientUnits="userSpaceOnUse">
<stop stop-color="#F97316"/>
<stop offset="1" stop-color="#EF4444"/>
</linearGradient>
<linearGradient id="paint33_linear_4020_295" x1="75" y1="0" x2="75" y2="150" gradientUnits="userSpaceOnUse">
<stop stop-color="#F97316"/>
<stop offset="1" stop-color="#EF4444"/>
</linearGradient>
<linearGradient id="paint34_linear_4020_295" x1="75" y1="0" x2="75" y2="150" gradientUnits="userSpaceOnUse">
<stop stop-color="#F97316"/>
<stop offset="1" stop-color="#EF4444"/>
</linearGradient>
<linearGradient id="paint35_linear_4020_295" x1="75" y1="0" x2="75" y2="150" gradientUnits="userSpaceOnUse">
<stop stop-color="#F97316"/>
<stop offset="1" stop-color="#EF4444"/>
</linearGradient>
<linearGradient id="paint36_linear_4020_295" x1="75" y1="0" x2="75" y2="150" gradientUnits="userSpaceOnUse">
<stop stop-color="#F97316"/>
<stop offset="1" stop-color="#EF4444"/>
</linearGradient>
<linearGradient id="paint37_linear_4020_295" x1="75" y1="0" x2="75" y2="150" gradientUnits="userSpaceOnUse">
<stop stop-color="#F97316"/>
<stop offset="1" stop-color="#EF4444"/>
</linearGradient>
<linearGradient id="paint38_linear_4020_295" x1="75" y1="0" x2="75" y2="150" gradientUnits="userSpaceOnUse">
<stop stop-color="#F97316"/>
<stop offset="1" stop-color="#EF4444"/>
</linearGradient>
<linearGradient id="paint39_linear_4020_295" x1="75" y1="0" x2="75" y2="150" gradientUnits="userSpaceOnUse">
<stop stop-color="#F97316"/>
<stop offset="1" stop-color="#EF4444"/>
</linearGradient>
<linearGradient id="paint40_linear_4020_295" x1="75" y1="0" x2="75" y2="150" gradientUnits="userSpaceOnUse">
<stop stop-color="#F97316"/>
<stop offset="1" stop-color="#EF4444"/>
</linearGradient>
<linearGradient id="paint41_linear_4020_295" x1="75" y1="0" x2="75" y2="150" gradientUnits="userSpaceOnUse">
<stop stop-color="#F97316"/>
<stop offset="1" stop-color="#EF4444"/>
</linearGradient>
<linearGradient id="paint42_linear_4020_295" x1="75" y1="0" x2="75" y2="150" gradientUnits="userSpaceOnUse">
<stop stop-color="#F97316"/>
<stop offset="1" stop-color="#EF4444"/>
</linearGradient>
<linearGradient id="paint43_linear_4020_295" x1="75" y1="0" x2="75" y2="150" gradientUnits="userSpaceOnUse">
<stop stop-color="#F97316"/>
<stop offset="1" stop-color="#EF4444"/>
</linearGradient>
<linearGradient id="paint44_linear_4020_295" x1="75" y1="0" x2="75" y2="150" gradientUnits="userSpaceOnUse">
<stop stop-color="#F97316"/>
<stop offset="1" stop-color="#EF4444"/>
</linearGradient>
<linearGradient id="paint45_linear_4020_295" x1="75" y1="0" x2="75" y2="150" gradientUnits="userSpaceOnUse">
<stop stop-color="#F97316"/>
<stop offset="1" stop-color="#EF4444"/>
</linearGradient>
<linearGradient id="paint46_linear_4020_295" x1="75" y1="0" x2="75" y2="150" gradientUnits="userSpaceOnUse">
<stop stop-color="#F97316"/>
<stop offset="1" stop-color="#EF4444"/>
</linearGradient>
<linearGradient id="paint47_linear_4020_295" x1="75" y1="0" x2="75" y2="150" gradientUnits="userSpaceOnUse">
<stop stop-color="#F97316"/>
<stop offset="1" stop-color="#EF4444"/>
</linearGradient>
<linearGradient id="paint48_linear_4020_295" x1="75" y1="0" x2="75" y2="150" gradientUnits="userSpaceOnUse">
<stop stop-color="#F97316"/>
<stop offset="1" stop-color="#EF4444"/>
</linearGradient>
<linearGradient id="paint49_linear_4020_295" x1="75" y1="0" x2="75" y2="150" gradientUnits="userSpaceOnUse">
<stop stop-color="#F97316"/>
<stop offset="1" stop-color="#EF4444"/>
</linearGradient>
<linearGradient id="paint50_linear_4020_295" x1="75" y1="0" x2="75" y2="150" gradientUnits="userSpaceOnUse">
<stop stop-color="#F97316"/>
<stop offset="1" stop-color="#EF4444"/>
</linearGradient>
<linearGradient id="paint51_linear_4020_295" x1="75" y1="0" x2="75" y2="150" gradientUnits="userSpaceOnUse">
<stop stop-color="#F97316"/>
<stop offset="1" stop-color="#EF4444"/>
</linearGradient>
<linearGradient id="paint52_linear_4020_295" x1="75" y1="0" x2="75" y2="150" gradientUnits="userSpaceOnUse">
<stop stop-color="#F97316"/>
<stop offset="1" stop-color="#EF4444"/>
</linearGradient>
<linearGradient id="paint53_linear_4020_295" x1="75" y1="0" x2="75" y2="150" gradientUnits="userSpaceOnUse">
<stop stop-color="#F97316"/>
<stop offset="1" stop-color="#EF4444"/>
</linearGradient>
<linearGradient id="paint54_linear_4020_295" x1="75" y1="0" x2="75" y2="150" gradientUnits="userSpaceOnUse">
<stop stop-color="#F97316"/>
<stop offset="1" stop-color="#EF4444"/>
</linearGradient>
<linearGradient id="paint55_linear_4020_295" x1="75" y1="0" x2="75" y2="150" gradientUnits="userSpaceOnUse">
<stop stop-color="#F97316"/>
<stop offset="1" stop-color="#EF4444"/>
</linearGradient>
<linearGradient id="paint56_linear_4020_295" x1="75" y1="0" x2="75" y2="150" gradientUnits="userSpaceOnUse">
<stop stop-color="#F97316"/>
<stop offset="1" stop-color="#EF4444"/>
</linearGradient>
<linearGradient id="paint57_linear_4020_295" x1="75" y1="0" x2="75" y2="150" gradientUnits="userSpaceOnUse">
<stop stop-color="#F97316"/>
<stop offset="1" stop-color="#EF4444"/>
</linearGradient>
<linearGradient id="paint58_linear_4020_295" x1="75" y1="0" x2="75" y2="150" gradientUnits="userSpaceOnUse">
<stop stop-color="#F97316"/>
<stop offset="1" stop-color="#EF4444"/>
</linearGradient>
<linearGradient id="paint59_linear_4020_295" x1="75" y1="0" x2="75" y2="150" gradientUnits="userSpaceOnUse">
<stop stop-color="#F97316"/>
<stop offset="1" stop-color="#EF4444"/>
</linearGradient>
<linearGradient id="paint60_linear_4020_295" x1="75" y1="0" x2="75" y2="150" gradientUnits="userSpaceOnUse">
<stop stop-color="#F97316"/>
<stop offset="1" stop-color="#EF4444"/>
</linearGradient>
</defs>
</svg>
